<svg width="518" height="132" viewBox="0 0 518 132" fill="none" xmlns="http://www.w3.org/2000/svg">
<path d="M7 109H25.688L32.216 90.184H68.312L74.84 109H94.68L59.992 16.2H41.56L7 109ZM50.264 38.6L63.064 75.208H37.464L50.264 38.6ZM161.852 40.136H143.804L128.956 60.488L114.62 40.136H94.908L118.844 74.312L93.5 109H111.42L127.548 86.856L143.164 109H163.004L137.66 73.032L161.852 40.136ZM188.6 16.2H170.936V109H188.6V16.2ZM234.644 110.664C253.716 110.664 263.06 99.272 266.772 89.032H248.596C245.012 95.048 240.276 96.968 234.516 96.968C224.66 96.968 217.876 89.672 217.62 79.432H267.54C268.308 55.112 255.764 38.6 234.132 38.6C213.396 38.6 199.956 53.832 199.956 74.312C199.956 94.152 212.116 110.664 234.644 110.664ZM233.748 51.528C241.556 51.528 249.236 55.624 249.62 67.272H217.748C218.772 56.776 226.58 51.528 233.748 51.528ZM343.289 82.834C343.289 98.416 334.273 104.786 326.335 104.786C316.535 104.786 309.577 96.848 309.577 82.834C309.577 68.82 316.535 60.882 326.335 60.882C334.273 60.882 343.289 67.252 343.289 82.834ZM303.011 82.834C303.011 100.376 312.909 110.274 325.061 110.274C332.803 110.274 339.173 106.648 342.897 100.376V109H348.973V37.95H342.897V65.39C339.173 59.02 332.803 55.394 325.061 55.394C312.909 55.394 303.011 65.39 303.011 82.834ZM366.042 82.834C366.042 67.742 373.294 60.98 383.388 60.98C393.482 60.98 400.832 67.742 400.832 82.834C400.832 97.926 393.482 104.688 383.388 104.688C373.294 104.688 366.042 97.926 366.042 82.834ZM359.574 82.834C359.574 102.042 370.746 110.274 383.388 110.274C396.03 110.274 407.3 102.042 407.3 82.834C407.3 63.626 396.03 55.394 383.388 55.394C370.746 55.394 359.574 63.626 359.574 82.834ZM438.713 55.394C423.327 55.394 414.507 66.468 414.507 82.834C414.507 99.102 423.229 110.274 438.223 110.274C449.885 110.274 458.705 103.218 460.861 92.34H454.393C452.923 98.906 447.239 104.688 438.223 104.688C429.011 104.688 420.975 97.73 420.975 82.736C420.975 68.232 429.011 60.98 438.125 60.98C445.769 60.98 452.041 65.292 454.001 73.23H460.371C458.803 63.724 450.669 55.394 438.713 55.394ZM509.569 70.682C508.295 62.254 500.553 55.296 489.283 55.296C477.425 55.296 469.095 61.47 469.095 69.8C469.095 78.032 475.759 82.442 483.403 83.912L491.635 85.48C498.789 86.852 504.669 89.008 504.669 95.182C504.669 102.238 496.731 104.884 490.361 104.884C482.227 104.884 475.563 101.16 474.387 92.83H468.017C469.585 104.884 478.993 110.274 489.871 110.274C501.337 110.274 510.843 104.688 510.843 94.202C510.843 84.206 501.239 81.266 492.615 79.698L485.167 78.326C479.385 77.248 475.269 74.504 475.269 69.31C475.269 62.94 482.913 60.686 488.695 60.686C496.143 60.686 501.925 64.41 503.199 70.682H509.569Z" fill="black"/>
</svg>
