<svg width="260" height="61" viewBox="0 0 260 61" fill="none" xmlns="http://www.w3.org/2000/svg">
    <path d="M0 48.8418H11.3218L13.9967 40.3292H31.4148L34.152 48.8418H45.7226L28.6777 1H16.9827L0 48.8418ZM22.768 12.9439L28.5533 31.1568H16.9205L22.768 12.9439Z" fill="black" />
    <path d="M81.2319 13.3399H70.5322L63.6272 22.9082L56.971 13.3399H45.3382L57.7175 31.0908L44.8405 48.8418H55.7268L63.0051 38.6795L70.159 48.8418H81.7296L68.9148 30.4969L81.2319 13.3399Z" fill="black" />
    <path d="M95.65 1H85.3858V48.8418H95.65V1Z" fill="black" />
    <path d="M126.58 37.6897C125.398 39.8013 122.91 41.2531 119.053 41.2531C115.32 41.2531 111.65 38.8775 111.339 33.8623H136.16C136.844 21.2585 130.001 12.2841 118.928 12.2841C109.162 12.2841 101.012 19.5428 101.012 30.8929C101.012 42.6388 108.477 49.6996 119.364 49.6996C126.082 49.6996 133.049 46.0702 136.035 37.6897H126.58ZM118.928 20.5986C122.785 20.5986 125.833 22.8422 125.958 27.2635H111.463C112.023 22.5783 115.32 20.5986 118.928 20.5986Z" fill="black" />
    <path d="M153.645 33.5046C153.645 35.5376 153.919 37.388 154.513 39.0556C155.084 40.746 155.861 42.1166 156.866 43.2131C157.848 44.3096 158.99 45.1319 160.292 45.7259C161.571 46.3198 162.942 46.6168 164.404 46.6168C168.173 46.6168 170.914 45.1548 172.628 42.208V46H176.899V12.0773H172.628V24.8012C170.914 21.8772 168.173 20.4152 164.404 20.4152C162.942 20.4152 161.571 20.7122 160.292 21.3061C158.99 21.9 157.848 22.7453 156.866 23.8417C155.861 24.9382 155.084 26.3317 154.513 27.9993C153.919 29.6669 153.645 31.4943 153.645 33.5046ZM158.259 33.5046C158.259 30.5577 158.899 28.2505 160.224 26.5601C161.526 24.8925 163.285 24.0473 165.478 24.0473C166.437 24.0473 167.351 24.2529 168.219 24.6184C169.087 24.9839 169.864 25.555 170.549 26.286C171.234 27.017 171.783 28.0221 172.194 29.2557C172.605 30.4892 172.81 31.9055 172.81 33.5046C172.81 35.1036 172.605 36.5428 172.194 37.7763C171.783 39.0099 171.234 40.015 170.549 40.746C169.864 41.477 169.087 42.0481 168.219 42.4136C167.351 42.7791 166.437 42.9618 165.478 42.9618C163.285 42.9618 161.526 42.1394 160.224 40.449C158.899 38.7814 158.259 36.4742 158.259 33.5046ZM181.971 33.5046C181.971 35.6976 182.313 37.6621 183.022 39.3754C183.707 41.1115 184.643 42.4821 185.808 43.5101C186.973 44.538 188.253 45.3147 189.669 45.8401C191.062 46.3655 192.524 46.6168 194.032 46.6168C195.22 46.6168 196.385 46.4569 197.527 46.1371C198.669 45.8173 199.743 45.3147 200.794 44.6294C201.845 43.9441 202.758 43.076 203.535 42.0709C204.312 41.0658 204.951 39.8322 205.408 38.3702C205.865 36.9083 206.116 35.2864 206.116 33.5046C206.116 31.7456 205.865 30.1237 205.408 28.6617C204.951 27.1997 204.312 25.9662 203.535 24.9611C202.758 23.956 201.845 23.1107 200.794 22.4254C199.743 21.7401 198.669 21.2147 197.527 20.8949C196.385 20.5751 195.22 20.4152 194.032 20.4152C192.821 20.4152 191.656 20.5751 190.514 20.8949C189.372 21.2147 188.298 21.7401 187.248 22.4254C186.197 23.1107 185.306 23.956 184.529 24.9611C183.753 25.9662 183.113 27.1997 182.656 28.6617C182.199 30.1237 181.971 31.7456 181.971 33.5046ZM186.494 33.5046C186.494 31.8598 186.699 30.3978 187.111 29.1643C187.522 27.9307 188.093 26.9485 188.824 26.2403C189.555 25.555 190.354 25.0296 191.222 24.687C192.09 24.3443 193.027 24.1616 194.032 24.1616C195.014 24.1616 195.951 24.3443 196.819 24.7098C197.687 25.0753 198.487 25.6007 199.218 26.3088C199.949 27.0398 200.52 27.9993 200.931 29.2328C201.342 30.4664 201.571 31.9055 201.571 33.5046C201.571 35.0579 201.342 36.4514 200.931 37.6849C200.52 38.9185 199.949 39.9008 199.24 40.6318C198.51 41.3628 197.71 41.9338 196.842 42.2993C195.951 42.6877 195.014 42.8704 194.032 42.8704C193.027 42.8704 192.09 42.7105 191.222 42.345C190.354 41.9795 189.555 41.4541 188.824 40.7231C188.093 39.9921 187.522 39.0099 187.111 37.7763C186.699 36.5428 186.494 35.1265 186.494 33.5046ZM209.84 33.4589C209.84 36.0174 210.297 38.2789 211.256 40.2663C212.193 42.2537 213.563 43.807 215.345 44.9264C217.127 46.0685 219.206 46.6168 221.582 46.6168C224.414 46.6168 226.881 45.7716 228.983 44.0583C231.084 42.345 232.341 40.2663 232.798 37.822H228.412C228.092 39.2383 227.315 40.4262 226.105 41.4084C224.871 42.3907 223.409 42.8704 221.719 42.8704C219.685 42.8704 217.972 42.0709 216.556 40.4262C215.14 38.7814 214.454 36.4514 214.454 33.4132C214.454 30.4435 215.14 28.1592 216.556 26.5601C217.949 24.9611 219.663 24.1616 221.719 24.1616C223.34 24.1616 224.757 24.6413 225.967 25.5779C227.155 26.5373 227.909 27.748 228.229 29.2557H232.524C232.364 28.182 232.021 27.1312 231.473 26.0804C230.925 25.0525 230.194 24.1159 229.325 23.2478C228.457 22.4026 227.384 21.7173 226.105 21.1919C224.825 20.6893 223.455 20.4152 221.993 20.4152C219.548 20.4152 217.401 20.9863 215.551 22.1285C213.7 23.2707 212.284 24.8012 211.302 26.7657C210.32 28.7303 209.84 30.9689 209.84 33.4589ZM235.973 37.8677C236.087 39.0099 236.407 40.0835 236.932 41.1115C237.458 42.1394 238.166 43.076 239.057 43.8984C239.925 44.7208 241.044 45.3832 242.369 45.8858C243.694 46.3883 245.179 46.6168 246.778 46.6168C249.748 46.6168 252.192 45.9315 254.111 44.5152C256.03 43.1217 257.012 41.2257 257.012 38.8043C257.012 37.6393 256.783 36.6113 256.327 35.7204C255.87 34.8523 255.23 34.1213 254.385 33.5503C253.54 33.002 252.649 32.5451 251.712 32.2025C250.753 31.8598 249.656 31.5629 248.4 31.3116L244.859 30.6034C243.58 30.375 242.62 29.9867 241.981 29.4384C241.341 28.913 241.021 28.1592 241.021 27.1997C241.021 26.1489 241.547 25.3723 242.598 24.824C243.648 24.2758 244.882 24.0016 246.298 24.0016C249.633 24.0016 251.598 25.3951 252.238 28.182H256.692C256.281 25.7834 255.207 23.8874 253.448 22.4711C251.689 21.0777 249.473 20.3695 246.778 20.3695C244.905 20.3695 243.192 20.6436 241.684 21.1919C240.176 21.7401 238.965 22.5397 238.052 23.6133C237.138 24.687 236.704 25.9433 236.704 27.3825C236.704 28.2962 236.841 29.0958 237.138 29.8268C237.412 30.5577 237.778 31.1745 238.234 31.6542C238.668 32.1568 239.217 32.5908 239.879 32.9563C240.519 33.3218 241.158 33.6188 241.798 33.8244C242.415 34.03 243.1 34.2127 243.877 34.3498L247.6 35.1036C248.331 35.2635 248.994 35.4463 249.565 35.6519C250.113 35.8575 250.661 36.1087 251.164 36.4285C251.666 36.7484 252.032 37.1595 252.306 37.6393C252.58 38.119 252.717 38.6672 252.717 39.2611C252.717 40.4033 252.146 41.2942 251.027 41.9795C249.908 42.6648 248.514 43.0075 246.869 43.0075C243.283 43.0075 241.136 41.2942 240.45 37.8677H235.973Z" fill="black" />
</svg>
    